<svg xmlns="http://www.w3.org/2000/svg" viewBox="0 0 1200 360" role="img" aria-label="HawkinsOperations — Governed Detection Engineering SOC">
  <defs>
    <linearGradient id="bg" x1="0" y1="0" x2="1" y2="1">
      <stop offset="0%" stop-color="#02050B"/>
      <stop offset="55%" stop-color="#060B16"/>
      <stop offset="100%" stop-color="#091020"/>
    </linearGradient>
    <linearGradient id="slate" x1="0" y1="0" x2="0" y2="1">
      <stop offset="0%" stop-color="#EEF3FA"/>
      <stop offset="100%" stop-color="#A7B4C8"/>
    </linearGradient>
    <radialGradient id="glow" cx="50%" cy="50%" r="50%">
      <stop offset="0%" stop-color="#1E7BFF" stop-opacity="0.30"/>
      <stop offset="55%" stop-color="#1E7BFF" stop-opacity="0.08"/>
      <stop offset="100%" stop-color="#1E7BFF" stop-opacity="0"/>
    </radialGradient>
    <radialGradient id="vignette" cx="50%" cy="50%" r="78%">
      <stop offset="58%" stop-color="#000000" stop-opacity="0"/>
      <stop offset="100%" stop-color="#000000" stop-opacity="0.60"/>
    </radialGradient>
    <linearGradient id="taglineAccent" x1="0" y1="0" x2="1" y2="0">
      <stop offset="0%" stop-color="#3FC9FF" stop-opacity="0.9"/>
      <stop offset="100%" stop-color="#1E7BFF" stop-opacity="0.1"/>
    </linearGradient>
    <pattern id="grid" x="0" y="0" width="44" height="44" patternUnits="userSpaceOnUse">
      <path d="M 44 0 L 0 0 0 44" fill="none" stroke="#1E7BFF" stroke-opacity="0.05" stroke-width="0.6"/>
    </pattern>
  </defs>

  <!-- Background layers -->
  <rect width="1200" height="360" fill="url(#bg)"/>
  <rect width="1200" height="360" fill="url(#grid)"/>
  <ellipse cx="232" cy="180" rx="430" ry="300" fill="url(#glow)"/>
  <rect width="1200" height="360" fill="url(#vignette)"/>

  <!-- Thin HUD traces, low opacity -->
  <g stroke="#1E7BFF" stroke-opacity="0.16" stroke-width="0.8" fill="none">
    <path d="M 470 60 L 1140 60"/>
    <path d="M 470 300 L 1140 300"/>
  </g>
  <g fill="#3FC9FF" fill-opacity="0.5">
    <circle cx="1140" cy="60" r="1.7"/>
    <circle cx="1140" cy="300" r="1.7"/>
  </g>

  <!-- ===== Monogram: large crosshair / orbit H mark ===== -->
  <g transform="translate(232 180)">
    <!-- Outer orbit ring (dashed) -->
    <circle cx="0" cy="0" r="150" fill="none" stroke="#1E7BFF" stroke-opacity="0.30" stroke-width="1" stroke-dasharray="2 9"/>
    <!-- Governance ring -->
    <circle cx="0" cy="0" r="132" fill="none" stroke="#1E7BFF" stroke-opacity="0.40" stroke-width="1"/>
    <!-- Inner control disc -->
    <circle cx="0" cy="0" r="116" fill="#050C18" stroke="#3FC9FF" stroke-opacity="0.80" stroke-width="1.6"/>
    <!-- Crosshair ticks at N / E / S / W on the inner ring -->
    <g stroke="#3FC9FF" stroke-opacity="0.65" stroke-width="1.4">
      <line x1="0" y1="-128" x2="0" y2="-104"/>
      <line x1="0" y1="104" x2="0" y2="128"/>
      <line x1="-128" y1="0" x2="-104" y2="0"/>
      <line x1="104" y1="0" x2="128" y2="0"/>
    </g>
    <!-- Proof-tick node (cyan, E) and human-review node (amber, W) -->
    <circle cx="116" cy="0" r="4" fill="#3FC9FF"/>
    <circle cx="-116" cy="0" r="4" fill="#F2B544"/>
    <!-- H letterform, silver, dominant -->
    <g fill="url(#slate)">
      <rect x="-58" y="-62" width="20" height="124" rx="2"/>
      <rect x="38" y="-62" width="20" height="124" rx="2"/>
      <rect x="-58" y="-10" width="96" height="18" rx="1.5"/>
    </g>
  </g>

  <!-- Vertical separator -->
  <line x1="430" y1="74" x2="430" y2="286" stroke="#1E7BFF" stroke-opacity="0.28" stroke-width="1"/>

  <g font-family="Segoe UI, Inter, system-ui, sans-serif">
    <!-- Wordmark -->
    <text x="470" y="132" font-size="52" font-weight="800" letter-spacing="2.5" fill="url(#slate)">
      <tspan>HAWKINS</tspan><tspan fill="#3FC9FF">OPERATIONS</tspan>
    </text>

    <!-- Subtitle -->
    <line x1="472" y1="160" x2="540" y2="160" stroke="#3FC9FF" stroke-width="1.5" opacity="0.85"/>
    <text x="552" y="164" font-size="13.5" letter-spacing="5.5" fill="#9DB1CC" font-weight="600">
      GOVERNED DETECTION ENGINEERING SOC
    </text>

    <!-- Tagline: PROOF > TRUTH > AUTHORITY -->
    <text x="471" y="208" font-size="22" font-weight="700" letter-spacing="4.5" fill="#E6EDF7">
      <tspan>PROOF</tspan><tspan fill="#3FC9FF" dx="6">&gt;</tspan><tspan dx="6">TRUTH</tspan><tspan fill="#3FC9FF" dx="6">&gt;</tspan><tspan dx="6">AUTHORITY</tspan>
    </text>

    <!-- Doctrine microline -->
    <text x="472" y="238" font-size="13.5" fill="#C2CEE0" font-weight="500">
      AI is labor. Evidence and human review authorize claims.
    </text>

    <!-- Boundary chips -->
    <g font-size="10.5" font-weight="600" letter-spacing="1">
      <rect x="471" y="256" width="230" height="26" rx="13" fill="#0A172E" stroke="#3FC9FF" stroke-opacity="0.75" stroke-width="1"/>
      <text x="586" y="273" text-anchor="middle" fill="#3FC9FF">CONTROLLED_TEST_VALIDATED</text>

      <rect x="713" y="256" width="100" height="26" rx="13" fill="#0A172E" stroke="#3FC9FF" stroke-opacity="0.75"/>
      <text x="763" y="273" text-anchor="middle" fill="#3FC9FF">HO-DET-001</text>

      <rect x="825" y="256" width="138" height="26" rx="13" fill="#0A172E" stroke="#A2ABB8" stroke-opacity="0.55"/>
      <text x="894" y="273" text-anchor="middle" fill="#C9D4E3">NOT_PUBLIC_SAFE</text>

      <rect x="975" y="256" width="86" height="26" rx="13" fill="#0A172E" stroke="#F2B544" stroke-opacity="0.75"/>
      <text x="1018" y="273" text-anchor="middle" fill="#F2B544">BLOCKED</text>
    </g>

    <!-- Boundary microline -->
    <text x="472" y="308" font-size="11" fill="#5C6B82" letter-spacing="0.5">
      Rendering is not proof.
    </text>
  </g>

  <!-- Corner brackets -->
  <g stroke="#3FC9FF" stroke-width="1.2" fill="none" opacity="0.55">
    <polyline points="20,38 20,20 38,20"/>
    <polyline points="1162,20 1180,20 1180,38"/>
    <polyline points="20,322 20,340 38,340"/>
    <polyline points="1162,340 1180,340 1180,322"/>
  </g>
</svg>
